<?xml version="1.0" encoding="utf-8"?>
<!-- Generator: Adobe Illustrator 19.0.0, SVG Export Plug-In . SVG Version: 6.00 Build 0)  -->
<svg version="1.1" id="Layer_1" xmlns="http://www.w3.org/2000/svg" xmlns:xlink="http://www.w3.org/1999/xlink" x="0px" y="0px"
	 viewBox="0 0 300 100" style="enable-background:new 0 0 300 100;" xml:space="preserve">
<style type="text/css">
	.st0{fill:#FFFFFF;}
	.st1{fill:#00758F;}
	.st2{fill:#F29111;}
	.st3{fill-rule:evenodd;clip-rule:evenodd;fill:#F29111;}
</style>
<rect class="st0" width="300" height="99.7"/>
<g>
	<path class="st1" d="M79,74.3H68.4c-0.4-18-1.4-34.9-3.1-50.8h-0.1L48.9,74.3h-8.1L24.7,23.5h-0.1c-1.2,15.2-2,32.2-2.3,50.8h-9.7
		c0.6-22.7,2.2-43.9,4.7-63.7h13.2l15.4,46.8H46l15.5-46.8h12.6C76.9,33.8,78.5,55,79,74.3"/>
	<path class="st1" d="M125.3,27.3c-4.3,23.6-10.1,40.7-17.2,51.4C102.6,86.9,96.5,91,89.9,91c-1.8,0-3.9-0.5-6.5-1.6v-5.7
		c1.3,0.2,2.7,0.3,4.4,0.3c3.1,0,5.6-0.9,7.5-2.6c2.3-2.1,3.4-4.4,3.4-7c0-1.8-0.9-5.4-2.6-10.9L84.3,27.3h10.5l8.4,27.2
		c1.9,6.2,2.7,10.5,2.4,12.9c4.6-12.3,7.8-25.6,9.6-40.1H125.3z"/>
	<polygon class="st2" points="267.2,74.3 236.9,74.3 236.9,10.6 247.1,10.6 247.1,66.5 267.2,66.5 	"/>
	<path class="st3" d="M229,75.8l-11.7-5.8c1-0.9,2-1.8,2.9-2.8c5-5.8,7.5-14.5,7.5-26c0-21.1-8.3-31.6-24.8-31.6
		c-8.1,0-14.4,2.7-19,8c-5,5.9-7.5,14.5-7.5,25.9c0,11.2,2.2,19.4,6.6,24.6c4,4.7,10.1,7.1,18.2,7.1c3,0,5.8-0.4,8.3-1.1l15.3,8.9
		L229,75.8z M191.1,61.5c-2.6-4.2-3.9-10.8-3.9-20c0-16,4.9-24.1,14.6-24.1c5.1,0,8.8,1.9,11.2,5.8c2.6,4.2,3.9,10.8,3.9,19.8
		c0,16.2-4.9,24.3-14.6,24.3C197.2,67.3,193.5,65.4,191.1,61.5"/>
	<path class="st2" d="M172,56.6c0,5.4-2,9.8-5.9,13.3c-4,3.5-9.3,5.2-15.9,5.2c-6.2,0-12.3-2-18.1-6l2.7-5.5c5,2.5,9.6,3.8,13.7,3.8
		c3.8,0,6.8-0.9,9-2.5c2.2-1.7,3.5-4.1,3.5-7.1c0-3.8-2.6-7-7.5-9.7c-4.5-2.5-13.4-7.6-13.4-7.6c-4.8-3.5-7.3-7.3-7.3-13.6
		c0-5.2,1.8-9.3,5.4-12.5c3.6-3.2,8.3-4.8,14-4.8c5.9,0,11.3,1.6,16.1,4.7l-2.5,5.5c-4.1-1.8-8.2-2.6-12.3-2.6
		c-3.3,0-5.8,0.8-7.5,2.4c-1.8,1.6-2.9,3.6-2.9,6c0,3.8,2.7,7,7.7,9.8c4.5,2.5,13.7,7.7,13.7,7.7C169.5,46.7,172,50.4,172,56.6"/>
	<path class="st2" d="M287.4,74.3h1.6v-7.8h-2.4l-2,5.3l-2.1-5.3h-2.3v7.8h1.5v-5.9h0.1l2.2,5.9h1.1l2.2-5.9V74.3z M274.5,74.3h1.7
		v-6.5h2.2v-1.3h-6.2v1.3h2.3V74.3z"/>
</g>
</svg>
